<svg width="172" height="130" viewBox="0 0 172 130" fill="none" xmlns="http://www.w3.org/2000/svg">
<g clip-path="url(#clip0_24_96)">
<path d="M97.6803 130C100.423 130 102.646 127.774 102.646 125.027C102.646 122.281 100.423 120.055 97.6803 120.055C94.9377 120.055 92.7144 122.281 92.7144 125.027C92.7144 127.774 94.9377 130 97.6803 130Z" fill="#A680D8"/>
<path d="M62.9259 104.563C62.9259 104.563 56.006 106.31 57.4412 110.494C58.8764 114.677 63.2426 107.97 62.9259 104.563Z" fill="#A680D8"/>
<path d="M96.353 27.0837C99.9589 27.0837 102.882 24.1565 102.882 20.5456C102.882 16.9347 99.9589 14.0074 96.353 14.0074C92.7471 14.0074 89.8239 16.9347 89.8239 20.5456C89.8239 24.1565 92.7471 27.0837 96.353 27.0837Z" fill="#A680D8"/>
<path d="M99.4322 42.3056C103.038 42.3056 105.961 39.3783 105.961 35.7674C105.961 32.1565 103.038 29.2293 99.4322 29.2293C95.8263 29.2293 92.9031 32.1565 92.9031 35.7674C92.9031 39.3783 95.8263 42.3056 99.4322 42.3056Z" fill="#A680D8"/>
<path d="M110.24 30.572C112.983 30.572 115.206 28.3456 115.206 25.5993C115.206 22.8529 112.983 20.6265 110.24 20.6265C107.497 20.6265 105.274 22.8529 105.274 25.5993C105.274 28.3456 107.497 30.572 110.24 30.572Z" stroke="#A680D8" stroke-width="0.819021" stroke-miterlimit="10"/>
<path d="M92.9166 55.085C95.6592 55.085 97.8825 52.8586 97.8825 50.1122C97.8825 47.3658 95.6592 45.1395 92.9166 45.1395C90.174 45.1395 87.9507 47.3658 87.9507 50.1122C87.9507 52.8586 90.174 55.085 92.9166 55.085Z" fill="#A680D8"/>
<path d="M108.488 56.4883C112.157 56.4883 115.132 53.5098 115.132 49.8355C115.132 46.1613 112.157 43.1827 108.488 43.1827C104.819 43.1827 101.844 46.1613 101.844 49.8355C101.844 53.5098 104.819 56.4883 108.488 56.4883Z" stroke="#A680D8" stroke-width="0.819021" stroke-miterlimit="10"/>
<path d="M98.8865 67.0344C101.629 67.0344 103.852 64.808 103.852 62.0616C103.852 59.3153 101.629 57.0889 98.8865 57.0889C96.1439 57.0889 93.9206 59.3153 93.9206 62.0616C93.9206 64.808 96.1439 67.0344 98.8865 67.0344Z" fill="#A680D8"/>
<path d="M84.1841 68.5458C87.3472 68.5458 89.9114 65.978 89.9114 62.8106C89.9114 59.6431 87.3472 57.0754 84.1841 57.0754C81.0211 57.0754 78.4569 59.6431 78.4569 62.8106C78.4569 65.978 81.0211 68.5458 84.1841 68.5458Z" stroke="#A680D8" stroke-width="0.819021" stroke-miterlimit="10"/>
<path d="M70.3511 77.9447C73.9571 77.9447 76.8802 75.0175 76.8802 71.4066C76.8802 67.7957 73.9571 64.8685 70.3511 64.8685C66.7452 64.8685 63.8221 67.7957 63.8221 71.4066C63.8221 75.0175 66.7452 77.9447 70.3511 77.9447Z" fill="#A680D8"/>
<path d="M124.727 36.5434C128.332 36.5434 131.256 33.6162 131.256 30.0053C131.256 26.3944 128.332 23.4672 124.727 23.4672C121.121 23.4672 118.197 26.3944 118.197 30.0053C118.197 33.6162 121.121 36.5434 124.727 36.5434Z" fill="#A680D8"/>
<path d="M113.07 40.6592C115.068 40.6592 116.688 39.037 116.688 37.036C116.688 35.0349 115.068 33.4127 113.07 33.4127C111.072 33.4127 109.452 35.0349 109.452 37.036C109.452 39.037 111.072 40.6592 113.07 40.6592Z" fill="#A680D8"/>
<path d="M117.962 75.3268C119.96 75.3268 121.58 73.7046 121.58 71.7035C121.58 69.7024 119.96 68.0802 117.962 68.0802C115.963 68.0802 114.343 69.7024 114.343 71.7035C114.343 73.7046 115.963 75.3268 117.962 75.3268Z" stroke="#A680D8" stroke-width="0.819021" stroke-miterlimit="10"/>
<path d="M82.6547 84.24C85.3973 84.24 87.6205 82.0136 87.6205 79.2672C87.6205 76.5208 85.3973 74.2945 82.6547 74.2945C79.9121 74.2945 77.6888 76.5208 77.6888 79.2672C77.6888 82.0136 79.9121 84.24 82.6547 84.24Z" fill="#A680D8"/>
<path d="M105.49 82.2495C109.159 82.2495 112.133 79.2709 112.133 75.5966C112.133 71.9224 109.159 68.9438 105.49 68.9438C101.82 68.9438 98.846 71.9224 98.846 75.5966C98.846 79.2709 101.82 82.2495 105.49 82.2495Z" fill="#A680D8"/>
<path d="M94.0283 89.7255C96.6629 89.7255 98.7987 87.5867 98.7987 84.9484C98.7987 82.3101 96.6629 80.1713 94.0283 80.1713C91.3936 80.1713 89.2578 82.3101 89.2578 84.9484C89.2578 87.5867 91.3936 89.7255 94.0283 89.7255Z" fill="#A680D8"/>
<path d="M124.45 52.8516C128.119 52.8516 131.094 49.873 131.094 46.1988C131.094 42.5245 128.119 39.5459 124.45 39.5459C120.781 39.5459 117.807 42.5245 117.807 46.1988C117.807 49.873 120.781 52.8516 124.45 52.8516Z" fill="#A680D8"/>
<path d="M119.558 65.1519C122.301 65.1519 124.524 62.9255 124.524 60.1792C124.524 57.4328 122.301 55.2064 119.558 55.2064C116.816 55.2064 114.593 57.4328 114.593 60.1792C114.593 62.9255 116.816 65.1519 119.558 65.1519Z" fill="#A680D8"/>
<path d="M109.566 67.1153C111.14 67.1153 112.416 65.8375 112.416 64.2612C112.416 62.685 111.14 61.4071 109.566 61.4071C107.992 61.4071 106.716 62.685 106.716 64.2612C106.716 65.8375 107.992 67.1153 109.566 67.1153Z" stroke="#A680D8" stroke-width="0.819021" stroke-miterlimit="10"/>
<path d="M132.63 62.9118C135.265 62.9118 137.401 60.773 137.401 58.1347C137.401 55.4964 135.265 53.3577 132.63 53.3577C129.996 53.3577 127.86 55.4964 127.86 58.1347C127.86 60.773 129.996 62.9118 132.63 62.9118Z" stroke="#A680D8" stroke-width="0.819021" stroke-miterlimit="10"/>
<path d="M92.829 75.401C94.8273 75.401 96.4473 73.7788 96.4473 71.7777C96.4473 69.7766 94.8273 68.1544 92.829 68.1544C90.8307 68.1544 89.2107 69.7766 89.2107 71.7777C89.2107 73.7788 90.8307 75.401 92.829 75.401Z" stroke="#A680D8" stroke-width="0.819021" stroke-miterlimit="10"/>
<path d="M118.568 91.527C122.174 91.527 125.097 88.5998 125.097 84.9889C125.097 81.378 122.174 78.4508 118.568 78.4508C114.962 78.4508 112.039 81.378 112.039 84.9889C112.039 88.5998 114.962 91.527 118.568 91.527Z" stroke="#A680D8" stroke-width="0.819021" stroke-miterlimit="10"/>
<path d="M130.683 78.9636C134.289 78.9636 137.212 76.0364 137.212 72.4255C137.212 68.8146 134.289 65.8874 130.683 65.8874C127.077 65.8874 124.154 68.8146 124.154 72.4255C124.154 76.0364 127.077 78.9636 130.683 78.9636Z" stroke="#A680D8" stroke-width="0.819021" stroke-miterlimit="10"/>
<path d="M133.061 91.9318C135.696 91.9318 137.832 89.7931 137.832 87.1548C137.832 84.5165 135.696 82.3777 133.061 82.3777C130.427 82.3777 128.291 84.5165 128.291 87.1548C128.291 89.7931 130.427 91.9318 133.061 91.9318Z" fill="#A680D8"/>
<path d="M137.172 43.6145C139.914 43.6145 142.138 41.3882 142.138 38.6418C142.138 35.8954 139.914 33.669 137.172 33.669C134.429 33.669 132.206 35.8954 132.206 38.6418C132.206 41.3882 134.429 43.6145 137.172 43.6145Z" stroke="#A680D8" stroke-width="0.819021" stroke-miterlimit="10"/>
<path d="M145.385 71.3864C148.991 71.3864 151.914 68.4591 151.914 64.8482C151.914 61.2373 148.991 58.3101 145.385 58.3101C141.779 58.3101 138.856 61.2373 138.856 64.8482C138.856 68.4591 141.779 71.3864 145.385 71.3864Z" fill="#A680D8"/>
<path d="M105.375 92.7281C107.373 92.7281 108.993 91.1059 108.993 89.1048C108.993 87.1037 107.373 85.4815 105.375 85.4815C103.377 85.4815 101.757 87.1037 101.757 89.1048C101.757 91.1059 103.377 92.7281 105.375 92.7281Z" stroke="#A680D8" stroke-width="0.819021" stroke-miterlimit="10"/>
<path d="M143.222 83.9228C145.857 83.9228 147.993 81.7841 147.993 79.1458C147.993 76.5075 145.857 74.3687 143.222 74.3687C140.588 74.3687 138.452 76.5075 138.452 79.1458C138.452 81.7841 140.588 83.9228 143.222 83.9228Z" stroke="#A680D8" stroke-width="0.819021" stroke-miterlimit="10"/>
<path d="M143.007 55.3076C145.749 55.3076 147.973 53.0812 147.973 50.3348C147.973 47.5885 145.749 45.3621 143.007 45.3621C140.264 45.3621 138.041 47.5885 138.041 50.3348C138.041 53.0812 140.264 55.3076 143.007 55.3076Z" stroke="#A680D8" stroke-width="0.819021" stroke-miterlimit="10"/>
<path d="M118.999 21.0853C121.742 21.0853 123.965 18.859 123.965 16.1126C123.965 13.3662 121.742 11.1398 118.999 11.1398C116.257 11.1398 114.033 13.3662 114.033 16.1126C114.033 18.859 116.257 21.0853 118.999 21.0853Z" stroke="#A680D8" stroke-width="0.819021" stroke-miterlimit="10"/>
<path d="M82.0146 100.191C85.6205 100.191 88.5437 97.2633 88.5437 93.6524C88.5437 90.0415 85.6205 87.1143 82.0146 87.1143C78.4087 87.1143 75.4855 90.0415 75.4855 93.6524C75.4855 97.2633 78.4087 100.191 82.0146 100.191Z" stroke="#A680D8" stroke-width="0.819021" stroke-miterlimit="10"/>
<path d="M140.413 31.3142C144.018 31.3142 146.942 28.387 146.942 24.7761C146.942 21.1652 144.018 18.238 140.413 18.238C136.807 18.238 133.883 21.1652 133.883 24.7761C133.883 28.387 136.807 31.3142 140.413 31.3142Z" fill="#A680D8"/>
<path d="M113.245 106.324C116.851 106.324 119.774 103.397 119.774 99.7857C119.774 96.1748 116.851 93.2476 113.245 93.2476C109.639 93.2476 106.716 96.1748 106.716 99.7857C106.716 103.397 109.639 106.324 113.245 106.324Z" fill="#A680D8"/>
<path d="M127.786 103.308C129.784 103.308 131.404 101.686 131.404 99.6845C131.404 97.6834 129.784 96.0612 127.786 96.0612C125.787 96.0612 124.167 97.6834 124.167 99.6845C124.167 101.686 125.787 103.308 127.786 103.308Z" stroke="#A680D8" stroke-width="0.819021" stroke-miterlimit="10"/>
<path d="M68.9834 90.9131C71.7259 90.9131 73.9492 88.6867 73.9492 85.9403C73.9492 83.1939 71.7259 80.9675 68.9834 80.9675C66.2408 80.9675 64.0175 83.1939 64.0175 85.9403C64.0175 88.6867 66.2408 90.9131 68.9834 90.9131Z" fill="#A680D8"/>
<path d="M140.392 106.567C140.392 106.567 137.037 79.6788 159.569 96.4862C159.569 96.4862 151.416 97.9234 146.147 94.8062C146.147 94.8062 146.867 101.526 140.392 106.567Z" fill="#A680D8"/>
<path d="M55.339 102.141C55.339 102.141 72.9251 89.4961 68.3567 108.49C68.3567 108.49 64.7991 104.644 65.3044 100.528C65.3044 100.528 60.8709 103.625 55.339 102.141Z" stroke="#A680D8" stroke-width="0.819021" stroke-miterlimit="10"/>
<path d="M165.397 61.623C165.397 61.623 145.035 54.2483 163.268 47.2783C163.268 47.2783 162.115 52.3928 158.437 54.3022C158.437 54.3022 163.497 56.2117 165.397 61.623Z" stroke="#A680D8" stroke-width="0.819021" stroke-miterlimit="10"/>
<path d="M143.344 10.3234C143.344 10.3234 126.195 23.5616 130.117 4.41951C130.117 4.41951 133.809 8.13727 133.439 12.2734C133.439 12.2734 137.765 9.02791 143.344 10.3234Z" fill="#A680D8"/>
<path d="M163.517 54.0189C163.517 54.0189 169.184 58.3641 171.562 54.6396C173.941 50.9151 165.983 51.6506 163.517 54.0189Z" fill="#A680D8"/>
<path d="M149.266 99.698C149.266 99.698 148.875 106.837 153.289 106.702C157.702 106.567 152.608 100.406 149.266 99.698Z" fill="#A680D8"/>
<path d="M136.066 7.68523C136.066 7.68523 142.751 5.16849 140.85 1.18084C138.95 -2.8068 135.366 4.33857 136.066 7.68523Z" fill="#A680D8"/>
<path d="M87.2971 33.0281C78.6725 34.1751 71.4494 37.2789 71.436 47.0152C71.3349 49.7141 71.7392 52.4872 72.0693 55.3481C70.6611 52.8381 69.6639 50.0785 69.3202 47.1164C67.912 36.2465 77.6012 30.6125 87.2971 33.0281Z" fill="#A680D8"/>
<path d="M87.843 22.7722C71.773 23.6088 58.3442 29.8568 58.7754 47.8653C58.7957 52.7841 59.7255 57.7366 60.7362 62.7026C58.6609 58.0402 57.1179 53.0742 56.6732 47.9665C54.8405 28.8582 70.6545 20.0395 87.8363 22.7722H87.843Z" fill="#A680D8"/>
<path d="M69.8998 34.1548C66.7936 34.924 66.5577 38.3584 66.2141 41.064C65.857 44.1813 65.9244 47.1703 65.2506 50.3146C63.2022 46.0773 62.488 40.0317 65.1697 35.8821C66.1467 34.4449 68.2422 33.2439 69.893 34.1481L69.8998 34.1548Z" fill="#A680D8"/>
<path d="M85.8283 53.9986C76.6782 41.6376 63.62 41.6713 51.6601 49.9907C46.2495 53.6343 41.4521 58.2561 37.0522 63.1007C35.6912 64.6593 33.8315 66.8522 32.0729 67.925C17.7277 77.4522 5.79481 64.3422 0.000160217 51.8057C6.46861 62.3315 17.8288 75.0704 30.6714 65.9278C32.4974 64.7201 33.6765 62.9658 35.1184 61.3734C38.1033 57.9998 41.2702 54.7476 44.7537 51.88C51.6871 46.1448 60.4801 41.118 69.8324 42.3663C76.6647 43.2839 82.7221 48.0475 85.8351 54.0054L85.8283 53.9986Z" fill="#A680D8"/>
<path d="M53.3243 46.8937C54.3253 46.8937 55.1368 46.0811 55.1368 45.0787C55.1368 44.0763 54.3253 43.2637 53.3243 43.2637C52.3233 43.2637 51.5118 44.0763 51.5118 45.0787C51.5118 46.0811 52.3233 46.8937 53.3243 46.8937Z" fill="#A680D8"/>
<path d="M47.3545 51.3267C48.3555 51.3267 49.167 50.5141 49.167 49.5116C49.167 48.5092 48.3555 47.6966 47.3545 47.6966C46.3535 47.6966 45.542 48.5092 45.542 49.5116C45.542 50.5141 46.3535 51.3267 47.3545 51.3267Z" fill="#A680D8"/>
<path d="M41.762 55.6922C42.5509 55.6922 43.1905 55.0517 43.1905 54.2617C43.1905 53.4717 42.5509 52.8313 41.762 52.8313C40.9731 52.8313 40.3336 53.4717 40.3336 54.2617C40.3336 55.0517 40.9731 55.6922 41.762 55.6922Z" fill="#A680D8"/>
<path d="M126.492 10.7215C128.176 14.3448 129.928 17.4216 134.267 17.1112C135.548 17.1044 136.909 16.8885 138.411 16.8008C133.007 22.563 124.504 18.6496 126.492 10.7215Z" fill="#A680D8"/>
<path d="M157.197 46.0031C154.347 49.6938 152.238 53.3846 155.209 57.5814C155.998 58.8499 157.035 60.0577 158.046 61.4341C149.435 59.0118 148.417 48.9516 157.197 46.0031Z" fill="#A680D8"/>
<path d="M150.627 90.3935C146.598 89.9549 142.986 89.8875 140.999 93.8481C140.345 94.9682 139.826 96.2704 139.132 97.6333C136.983 89.9145 144.738 84.5773 150.627 90.3935Z" fill="#A680D8"/>
<path d="M72.8375 102.606C71.4764 98.7804 69.9671 95.5012 65.5403 95.4337C64.2466 95.3325 62.8518 95.4337 61.3223 95.3932C67.3123 90.0898 75.5124 94.7725 72.8307 102.606H72.8375Z" fill="#A680D8"/>
<path d="M82.0006 65.8997C82.6552 65.8997 83.1859 65.3683 83.1859 64.7127C83.1859 64.0572 82.6552 63.5258 82.0006 63.5258C81.346 63.5258 80.8153 64.0572 80.8153 64.7127C80.8153 65.3683 81.346 65.8997 82.0006 65.8997Z" stroke="#A680D8" stroke-width="0.819021" stroke-miterlimit="10"/>
<path d="M111.789 50.0166C112.444 50.0166 112.974 49.4852 112.974 48.8296C112.974 48.1741 112.444 47.6427 111.789 47.6427C111.134 47.6427 110.604 48.1741 110.604 48.8296C110.604 49.4852 111.134 50.0166 111.789 50.0166Z" stroke="#A680D8" stroke-width="0.819021" stroke-miterlimit="10"/>
<path d="M127.246 74.2191C127.901 74.2191 128.431 73.6877 128.431 73.0321C128.431 72.3766 127.901 71.8452 127.246 71.8452C126.591 71.8452 126.061 72.3766 126.061 73.0321C126.061 73.6877 126.591 74.2191 127.246 74.2191Z" stroke="#A680D8" stroke-width="0.819021" stroke-miterlimit="10"/>
<path d="M139.806 38.9513C140.267 38.9513 140.641 38.5769 140.641 38.1151C140.641 37.6532 140.267 37.2788 139.806 37.2788C139.345 37.2788 138.971 37.6532 138.971 38.1151C138.971 38.5769 139.345 38.9513 139.806 38.9513Z" stroke="#A680D8" stroke-width="0.819021" stroke-miterlimit="10"/>
<path d="M140.971 52.1423C141.433 52.1423 141.807 51.7679 141.807 51.306C141.807 50.8442 141.433 50.4698 140.971 50.4698C140.51 50.4698 140.136 50.8442 140.136 51.306C140.136 51.7679 140.51 52.1423 140.971 52.1423Z" stroke="#A680D8" stroke-width="0.819021" stroke-miterlimit="10"/>
<path d="M107.976 25.0317C108.437 25.0317 108.811 24.6573 108.811 24.1955C108.811 23.7336 108.437 23.3592 107.976 23.3592C107.514 23.3592 107.141 23.7336 107.141 24.1955C107.141 24.6573 107.514 25.0317 107.976 25.0317Z" stroke="#A680D8" stroke-width="0.819021" stroke-miterlimit="10"/>
<path d="M121.519 16.6786C121.98 16.6786 122.354 16.3042 122.354 15.8423C122.354 15.3804 121.98 15.006 121.519 15.006C121.058 15.006 120.684 15.3804 120.684 15.8423C120.684 16.3042 121.058 16.6786 121.519 16.6786Z" stroke="#A680D8" stroke-width="0.819021" stroke-miterlimit="10"/>
<path d="M132.03 59.065C132.491 59.065 132.865 58.6906 132.865 58.2288C132.865 57.7669 132.491 57.3925 132.03 57.3925C131.569 57.3925 131.195 57.7669 131.195 58.2288C131.195 58.6906 131.569 59.065 132.03 59.065Z" stroke="#A680D8" stroke-width="0.819021" stroke-miterlimit="10"/>
<path d="M120.879 86.7758C121.533 86.7758 122.064 86.2444 122.064 85.5889C122.064 84.9333 121.533 84.4019 120.879 84.4019C120.224 84.4019 119.693 84.9333 119.693 85.5889C119.693 86.2444 120.224 86.7758 120.879 86.7758Z" stroke="#A680D8" stroke-width="0.819021" stroke-miterlimit="10"/>
<path d="M85.2078 96.1815C85.8624 96.1815 86.3931 95.6501 86.3931 94.9946C86.3931 94.339 85.8624 93.8076 85.2078 93.8076C84.5532 93.8076 84.0225 94.339 84.0225 94.9946C84.0225 95.6501 84.5532 96.1815 85.2078 96.1815Z" stroke="#A680D8" stroke-width="0.819021" stroke-miterlimit="10"/>
<path d="M143.161 82.0598C143.622 82.0598 143.996 81.6854 143.996 81.2235C143.996 80.7617 143.622 80.3873 143.161 80.3873C142.7 80.3873 142.326 80.7617 142.326 81.2235C142.326 81.6854 142.7 82.0598 143.161 82.0598Z" stroke="#A680D8" stroke-width="0.819021" stroke-miterlimit="10"/>
<path d="M110.617 65.4281C110.848 65.4281 111.035 65.2409 111.035 65.01C111.035 64.779 110.848 64.5918 110.617 64.5918C110.386 64.5918 110.199 64.779 110.199 65.01C110.199 65.2409 110.386 65.4281 110.617 65.4281Z" stroke="#A680D8" stroke-width="0.819021" stroke-miterlimit="10"/>
<path d="M116.351 71.8717C116.582 71.8717 116.769 71.6845 116.769 71.4536C116.769 71.2227 116.582 71.0355 116.351 71.0355C116.12 71.0355 115.934 71.2227 115.934 71.4536C115.934 71.6845 116.12 71.8717 116.351 71.8717Z" stroke="#A680D8" stroke-width="0.819021" stroke-miterlimit="10"/>
<path d="M93.2264 72.6072C93.4571 72.6072 93.644 72.42 93.644 72.1891C93.644 71.9582 93.4571 71.771 93.2264 71.771C92.9958 71.771 92.8089 71.9582 92.8089 72.1891C92.8089 72.42 92.9958 72.6072 93.2264 72.6072Z" stroke="#A680D8" stroke-width="0.819021" stroke-miterlimit="10"/>
<path d="M103.448 89.9072C103.678 89.9072 103.865 89.72 103.865 89.4891C103.865 89.2582 103.678 89.071 103.448 89.071C103.217 89.071 103.03 89.2582 103.03 89.4891C103.03 89.72 103.217 89.9072 103.448 89.9072Z" stroke="#A680D8" stroke-width="0.819021" stroke-miterlimit="10"/>
<path d="M127.792 101.971C128.023 101.971 128.21 101.784 128.21 101.553C128.21 101.322 128.023 101.135 127.792 101.135C127.561 101.135 127.374 101.322 127.374 101.553C127.374 101.784 127.561 101.971 127.792 101.971Z" stroke="#A680D8" stroke-width="0.819021" stroke-miterlimit="10"/>
</g>
<defs>
<clipPath id="clip0_24_96">
<rect width="172" height="130" fill="white"/>
</clipPath>
</defs>
</svg>
